HIERARCHY
ROOT Hips
{
  OFFSET 0.0000 0.0000 0.0000
  CHANNELS 6 Xposition Yposition Zposition Zrotation Xrotation Yrotation
  JOINT LeftHip
  {
    OFFSET 3.4300 -0.0000 0.0000
    CHANNELS 3 Zrotation Xrotation Yrotation
    JOINT LeftKnee
    {
      OFFSET 0.0000 -18.4700 0.0000
      CHANNELS 3 Zrotation Xrotation Yrotation
      JOINT LeftAnkle
      {
        OFFSET 0.0000 -17.9500 0.0000
        CHANNELS 3 Zrotation Xrotation Yrotation
        End Site
        {
            OFFSET 0.0000 -3.1200 0.0000
        }
      }
    }
  }
  JOINT RightHip
  {
    OFFSET -3.4300 0.0000 -0.0000
    CHANNELS 3 Zrotation Xrotation Yrotation
    JOINT RightKnee
    {
      OFFSET 0.0000 -18.4700 0.0000
      CHANNELS 3 Zrotation Xrotation Yrotation
      JOINT RightAnkle
      {
        OFFSET 0.0000 -17.9500 -0.0000
        CHANNELS 3 Zrotation Xrotation Yrotation
        End Site
        {
            OFFSET 0.0000 -3.1200 0.0000
        }
      }
    }
  }
  JOINT Chest
  {
    OFFSET 0.0000 4.5700 0.0000
    CHANNELS 3 Zrotation Xrotation Yrotation
    JOINT Chest2
    {
      OFFSET -0.0000 6.5700 0.0000
      CHANNELS 3 Zrotation Xrotation Yrotation
      JOINT LeftCollar
      {
        OFFSET 1.0600 4.1900 1.7600
        CHANNELS 3 Zrotation Xrotation Yrotation
        JOINT LeftShoulder
        {
          OFFSET 5.8100 -0.0000 0.0000
          CHANNELS 3 Zrotation Xrotation Yrotation
          JOINT LeftElbow
          {
            OFFSET 0.0000 -12.0800 0.0000
            CHANNELS 3 Zrotation Xrotation Yrotation
            JOINT LeftWrist
            {
              OFFSET -0.0000 -9.8200 -0.0000
              CHANNELS 3 Zrotation Xrotation Yrotation
              End Site
              {
                  OFFSET 0.0000 -7.3700 0.0000
              }
            }
          }
        }
      }
      JOINT RightCollar
      {
        OFFSET -1.0600 4.1900 1.7600
        CHANNELS 3 Zrotation Xrotation Yrotation
        JOINT RightShoulder
        {
          OFFSET -6.0600 0.0000 -0.0000
          CHANNELS 3 Zrotation Xrotation Yrotation
          JOINT RightElbow
          {
            OFFSET 0.0000 -11.0800 0.0000
            CHANNELS 3 Zrotation Xrotation Yrotation
            JOINT RightWrist
            {
              OFFSET 0.0000 -9.8200 0.0000
              CHANNELS 3 Zrotation Xrotation Yrotation
              End Site
              {
                  OFFSET -0.0000 -7.1400 0.0000
              }
            }
          }
        }
      }
    }
    JOINT Neck
    {
      OFFSET 0.0000 10.6200 0.0000
      CHANNELS 3 Zrotation Xrotation Yrotation
      JOINT Head
      {
        OFFSET 0.0000 5.1900 0.0000
        CHANNELS 3 Zrotation Xrotation Yrotation
        End Site
        {
            OFFSET 0.0000 4.1400 0.0000
        }
      }
    }
  }
}
MOTION
Frames:	32
Frame Time:	0.033333
1.4548 43.8564 2.8022 -58.95 1.52 30.33 86.28 -58.46 -110.18 145.82 29.69 168.86 59.58 -15.30 -7.46 -65.17 -21.99 -56.75 166.89 48.24 -124.28 36.29 19.41 -8.14 9.90 26.66 -12.05 0.00 0.00 0.00 -2.12 0.16 1.92 92.84 -21.02 -6.95 21.29 -28.13 16.89 27.24 -11.06 3.10 18.34 4.09 12.81 -7.62 -51.94 48.92 111.60 -83.39 104.72 -24.35 3.89 0.47 4.96 22.02 0.25 29.20 -11.10 -1.05 
1.0745 43.8662 2.7613 -57.60 1.59 30.47 81.30 -54.26 -92.50 138.17 19.85 157.33 64.25 -18.43 -12.95 -64.74 -24.19 -61.23 168.36 48.24 -128.01 36.31 15.46 -6.92 9.47 27.99 -11.35 0.00 0.00 0.00 -2.95 0.12 2.40 89.76 -20.05 -9.21 21.54 -27.89 17.13 27.62 -10.67 3.05 17.30 3.44 10.80 -8.32 -50.11 47.68 83.00 -84.12 76.14 -23.26 1.91 0.04 3.77 20.67 0.71 28.46 -9.66 -1.48 
0.7601 43.8014 2.6925 -56.60 1.98 31.50 77.86 -50.83 -88.50 132.52 16.86 137.64 64.75 -16.61 -13.08 -64.81 -25.63 -65.07 168.65 48.63 -128.29 35.02 11.99 -5.75 9.69 28.41 -11.51 0.00 0.00 0.00 -3.69 0.09 2.74 86.70 -19.33 -10.80 22.12 -27.99 18.12 26.74 -9.78 2.74 16.63 2.97 9.17 -9.45 -48.42 44.42 88.98 -84.18 83.77 -23.47 3.70 0.41 3.33 22.46 1.00 27.59 -10.18 -1.07 
0.4305 43.8134 2.5619 -56.18 2.64 31.74 78.14 -46.96 -93.44 125.26 23.02 114.00 64.63 -7.67 -9.50 -64.25 -28.47 -68.94 168.70 49.59 -128.33 33.14 9.55 -4.74 10.06 28.73 -11.26 0.00 0.00 0.00 -4.31 0.03 3.22 83.42 -18.02 -11.18 22.11 -28.57 18.03 25.95 -8.92 2.45 16.31 2.70 8.16 -11.16 -47.42 39.55 66.38 -83.58 59.45 -23.46 4.47 0.57 1.89 23.47 1.78 27.64 -11.12 -0.71 
-0.0633 43.8926 2.3322 -56.93 4.81 32.02 48.60 -53.41 84.42 -112.27 -23.12 -118.55 37.34 20.80 13.42 -64.79 -32.88 -75.02 169.27 50.08 -129.91 31.38 7.13 -3.80 10.59 27.29 -10.90 0.00 0.00 0.00 -4.90 -0.03 3.74 80.54 -16.30 -11.34 21.92 -29.96 19.26 26.23 -7.67 2.19 15.79 2.43 7.24 -12.21 -46.67 35.67 47.19 -82.01 41.02 -23.46 2.85 0.23 1.08 22.63 2.16 27.49 -10.60 -0.85 
-0.6121 43.8578 1.9893 -58.22 8.11 33.55 59.26 -53.02 23.84 143.86 -82.36 151.31 48.73 0.38 0.64 -68.11 -37.16 -83.34 169.98 49.44 -131.77 30.05 5.49 -3.34 11.17 24.06 -11.74 0.00 0.00 0.00 -5.19 -0.10 4.27 77.83 -14.29 -11.66 22.37 -30.73 21.51 26.40 -6.63 1.96 14.98 2.14 6.27 -13.09 -46.16 31.09 49.97 -82.11 45.28 -24.08 3.33 0.34 -0.15 22.61 2.85 27.92 -10.48 -0.83 
-1.1760 43.7545 1.7277 -58.37 10.65 34.26 59.91 -52.57 18.74 62.75 -71.74 88.61 48.51 -10.57 8.07 -71.22 -41.66 -90.21 170.88 48.91 -134.57 30.43 5.57 -3.48 10.81 21.97 -12.05 0.00 0.00 0.00 -4.88 -0.13 4.56 74.32 -12.31 -11.68 22.88 -30.13 22.11 25.68 -6.31 1.83 14.80 1.99 5.68 -14.83 -45.24 27.55 52.42 -82.53 47.42 -24.26 3.94 0.48 -0.83 23.06 3.44 27.83 -10.87 -0.43 
-1.5546 43.6244 1.7176 -56.58 10.73 33.61 57.04 -51.38 16.30 55.70 -66.26 91.36 45.20 -15.01 9.67 -70.95 -45.57 -91.54 171.26 48.65 -136.20 30.79 6.37 -3.67 10.33 22.96 -11.84 0.00 0.00 0.00 -5.07 -0.17 4.83 71.82 -10.74 -11.93 22.87 -30.23 23.13 25.37 -5.71 1.67 13.84 1.71 4.73 -14.72 -44.38 25.68 52.32 -82.55 48.03 -24.70 4.02 0.50 -1.59 23.13 4.12 28.07 -11.12 -0.06 
-1.6667 43.5973 1.9074 -53.58 8.68 32.22 53.58 -48.05 9.78 61.65 -64.20 96.51 45.91 -13.93 9.90 -65.36 -48.88 -87.07 171.03 49.91 -137.02 30.27 7.73 -3.75 9.92 26.44 -11.63 0.00 0.00 0.00 -5.33 -0.21 5.12 69.92 -9.18 -12.06 23.04 -30.09 24.47 25.01 -5.58 1.62 12.68 1.44 3.80 -14.40 -43.81 23.49 55.70 -82.86 52.17 -24.89 4.10 0.52 -2.05 23.15 4.81 27.93 -11.31 0.51 
-1.9165 43.5949 1.8582 -52.56 9.33 32.02 48.58 -49.79 12.29 38.64 -46.85 105.86 22.70 -21.08 7.29 -62.74 -53.30 -88.27 171.37 52.61 -140.18 29.46 9.26 -3.92 9.78 26.48 -11.67 0.00 0.00 0.00 -5.33 -0.23 5.23 67.80 -8.00 -11.92 23.01 -29.67 23.68 24.91 -5.54 1.60 10.99 1.13 2.71 -12.71 -43.37 23.28 58.93 -83.24 56.06 -25.02 4.44 0.60 -2.35 22.92 5.49 27.41 -11.49 1.19 
-2.2032 43.0763 1.9250 -51.90 11.04 31.85 65.22 -57.13 29.18 12.53 -12.51 134.33 0.69 -8.48 2.60 -62.63 -58.64 -91.55 173.33 55.20 -147.12 28.72 8.98 -2.31 9.57 25.30 -11.30 0.00 0.00 0.00 -5.79 -0.26 5.42 66.40 -7.47 -12.56 23.00 -29.25 23.98 24.62 -4.99 1.47 7.08 0.58 0.46 -6.57 -42.62 26.26 56.35 -83.41 55.08 -25.10 4.63 0.65 -3.99 22.21 6.76 28.24 -11.38 1.60 
-2.5484 42.9418 1.8754 -50.70 12.50 31.99 65.86 -57.84 31.14 11.66 -11.86 134.41 0.53 -8.58 2.58 -62.13 -63.77 -94.42 175.71 60.01 -155.27 27.11 7.45 -1.55 8.96 24.52 -11.38 0.00 0.00 0.00 -5.69 -0.26 5.40 64.66 -6.97 -13.18 23.17 -28.99 25.33 23.37 -4.11 1.21 4.91 0.35 -0.79 -3.43 -41.70 27.39 57.02 -83.80 56.93 -25.15 5.00 0.73 -5.29 22.11 8.04 28.81 -11.69 2.32 
-2.8683 42.6994 1.8765 -49.71 13.97 32.07 68.62 -58.48 35.53 9.19 -9.14 140.33 2.65 -6.28 2.16 -60.81 -68.15 -96.11 178.42 65.80 -163.68 23.59 6.09 -0.66 8.40 23.61 -10.96 0.00 0.00 0.00 -5.41 -0.23 5.21 62.63 -6.99 -13.63 23.69 -28.65 26.74 21.61 -3.13 0.93 3.14 0.19 -1.80 -1.34 -40.38 27.76 62.29 -84.53 63.42 -25.23 5.51 0.85 -5.47 21.49 8.53 28.48 -11.70 2.81 
-3.2714 42.8164 1.7054 -48.74 15.56 32.43 64.72 -57.37 34.00 12.23 -7.68 162.64 37.01 -5.10 0.51 -57.15 -72.84 -94.41 -177.41 74.42 -173.90 21.71 6.28 -1.05 7.93 22.58 -10.60 0.00 0.00 0.00 -4.85 -0.18 4.93 60.53 -7.24 -14.10 24.27 -28.52 27.48 20.23 -2.18 0.70 1.27 0.07 -2.77 0.05 -38.79 27.33 71.59 -85.24 73.49 -25.14 5.93 0.94 -5.78 20.54 8.88 28.30 -11.38 2.99 
-3.6766 43.2532 1.5450 -47.14 16.48 32.59 41.67 -44.58 19.18 13.55 -53.15 -25.68 -96.09 -2.92 3.91 -40.79 -76.18 -78.45 -152.49 86.15 154.88 20.97 6.94 -1.92 7.47 22.19 -10.55 0.00 0.00 0.00 -4.60 -0.16 4.77 58.69 -7.52 -14.70 24.56 -28.61 27.62 19.06 -1.31 0.51 1.19 0.06 -2.86 -2.32 -37.32 23.52 72.42 -84.97 72.98 -24.15 5.59 0.83 -6.17 20.41 9.26 28.02 -11.62 3.31 
-3.8913 42.3031 1.9869 -45.53 17.01 31.63 52.53 -57.06 30.22 -1.98 -4.72 -49.61 -85.12 -4.68 -6.45 -24.42 -76.02 -57.74 29.12 84.96 -30.26 18.46 2.89 -0.34 6.81 21.98 -9.38 0.00 0.00 0.00 -4.35 -0.14 4.61 56.58 -7.82 -15.27 24.96 -28.99 28.42 18.11 -0.45 0.35 3.47 0.17 -2.06 -7.78 -35.80 19.77 71.80 -84.72 70.78 -23.14 5.46 0.76 -6.30 20.47 9.31 27.38 -12.19 3.52 
-4.2289 42.1996 2.0687 -44.06 18.34 31.57 51.92 -57.49 31.64 -2.37 -4.46 -49.91 -85.27 -4.71 -6.66 -8.61 -74.23 -36.74 23.27 71.65 -26.26 16.83 1.54 -0.20 6.06 20.78 -8.66 0.00 0.00 0.00 -3.94 -0.10 4.37 54.45 -8.81 -16.53 25.37 -28.60 30.70 17.07 -0.04 0.27 2.78 0.12 -2.44 -7.99 -33.92 19.39 72.56 -85.02 72.43 -22.29 5.79 0.80 -6.43 20.28 9.07 27.23 -11.98 3.17 
-4.5744 41.3840 2.3670 -42.56 19.72 31.58 47.53 -58.33 30.40 -2.49 -0.89 -47.04 -91.67 -0.18 -3.38 1.88 -71.75 -20.16 22.27 60.14 -26.12 15.28 -0.15 0.56 5.04 19.26 -7.56 0.00 0.00 0.00 -3.47 -0.07 4.11 52.27 -10.28 -17.98 25.71 -28.03 32.98 16.08 0.43 0.18 1.90 0.07 -2.86 -7.82 -31.25 18.58 73.83 -85.29 74.73 -21.75 5.70 0.76 -6.68 21.83 8.80 27.37 -12.76 2.89 
-4.9546 41.2630 2.5817 -40.61 20.43 31.78 45.25 -58.38 30.31 -2.85 -0.49 -47.93 -92.24 -0.04 -3.53 11.85 -64.65 -3.55 16.44 42.70 -22.07 12.81 0.59 0.50 4.05 18.32 -6.49 0.00 0.00 0.00 -2.53 -0.04 3.84 49.59 -11.76 -19.38 26.24 -27.75 34.88 15.14 0.98 0.10 1.50 0.04 -3.08 -8.37 -28.24 18.10 87.18 -85.80 88.67 -21.94 6.31 0.89 -4.53 22.24 6.96 25.53 -12.82 2.22 
-5.3509 40.6179 2.9748 -39.12 20.72 32.64 31.59 -57.29 20.44 -3.27 1.13 -32.19 -104.68 6.91 5.21 14.17 -62.07 5.69 15.96 36.56 -25.92 12.17 -1.23 1.11 3.79 17.31 -5.27 0.00 0.00 0.00 -1.38 -0.01 3.60 46.61 -14.20 -21.47 26.46 -26.89 35.89 14.15 1.20 0.07 0.21 0.01 -3.41 -8.31 -25.04 16.56 90.84 -86.05 92.00 -21.25 6.37 0.87 -2.97 21.83 5.13 24.36 -12.38 1.09 
-5.6840 40.3410 3.2956 -36.66 20.52 34.95 18.64 -55.76 10.78 -3.54 1.84 -18.37 -110.94 6.30 10.50 11.11 -56.56 9.91 14.78 25.19 -28.79 8.28 -1.88 1.15 3.41 16.66 -5.23 0.00 0.00 0.00 -0.43 0.00 3.49 43.44 -17.14 -24.15 26.43 -26.05 35.66 13.53 1.46 0.03 0.19 0.00 -3.45 -9.75 -21.61 14.04 82.48 -86.07 83.91 -20.69 5.71 0.73 -0.78 22.63 2.66 22.71 -12.44 -0.23 
-5.7638 40.0540 3.9360 -31.93 15.68 36.92 9.57 -48.73 2.07 -2.48 1.56 7.89 -112.29 11.41 26.85 5.03 -41.76 9.25 15.02 6.34 -31.57 -1.17 -0.61 0.72 4.55 20.63 -6.18 0.00 0.00 0.00 -0.32 0.00 3.47 41.06 -18.76 -26.62 26.74 -26.28 35.59 13.13 1.78 -0.01 -0.45 -0.00 -3.51 -9.80 -18.75 13.04 55.26 -85.16 59.09 -20.90 4.52 0.52 -0.42 22.95 0.92 22.16 -11.89 -1.95 
-5.4241 39.4901 4.9349 -26.58 7.49 37.02 5.46 -35.81 -3.59 -1.82 1.17 19.81 -110.02 17.20 36.22 8.30 -25.40 12.62 6.72 -3.73 -34.59 -0.80 4.16 0.76 7.59 28.25 -8.47 0.00 0.00 0.00 -1.72 0.00 3.47 40.06 -17.01 -25.56 27.56 -29.16 34.63 13.26 2.16 -0.05 1.67 0.02 -3.34 -12.12 -20.37 13.64 29.04 -80.22 35.64 -20.92 3.67 0.36 -2.48 25.11 1.45 22.75 -13.23 -2.27 
-5.1940 39.4881 5.1997 -24.63 6.12 34.49 4.82 -31.67 -6.01 -1.41 0.77 28.29 -109.28 17.83 36.83 7.20 -24.05 14.29 9.87 -1.43 -32.91 0.16 1.28 0.85 7.95 30.30 -7.24 0.00 0.00 0.00 -1.27 -0.00 3.52 36.31 -15.49 -23.29 28.12 -32.12 33.90 14.39 2.15 -0.05 2.67 0.05 -3.05 -14.41 -24.12 14.99 17.79 -74.41 26.71 -20.12 4.08 0.42 -3.62 23.53 0.75 21.15 -12.87 -3.46 
-5.3834 39.4409 5.1606 -23.13 8.64 32.25 3.60 -32.72 -8.05 -1.52 0.62 32.48 -110.16 15.64 33.72 4.74 -28.71 9.46 13.33 5.96 -26.79 -0.09 -1.93 0.94 6.64 28.04 -4.89 0.00 0.00 0.00 0.15 -0.00 3.51 31.02 -15.09 -24.51 28.84 -32.19 36.07 14.67 1.79 -0.01 0.14 0.01 -3.41 -13.08 -26.24 17.09 9.51 -67.93 22.69 -17.73 5.92 0.66 -4.47 21.49 -0.64 19.37 -10.93 -5.40 
-5.6498 39.5113 5.3276 -21.72 9.40 31.17 3.44 -32.80 -6.60 -1.69 0.60 32.44 -110.58 15.08 32.42 5.07 -30.29 7.44 12.22 9.90 -23.47 -0.31 -3.21 0.79 6.64 26.39 -4.22 0.00 0.00 0.00 1.05 0.00 3.49 27.01 -14.53 -26.77 29.35 -30.92 37.90 13.14 2.06 -0.04 0.50 0.02 -3.33 -13.61 -26.90 18.32 3.68 -61.23 22.51 -14.73 7.96 0.81 -5.61 22.68 -0.73 18.95 -10.82 -6.09 
-5.8127 39.4956 5.6346 -19.95 8.63 31.05 2.96 -31.01 -4.67 -1.79 0.65 30.74 -111.02 14.86 32.18 5.37 -31.59 8.89 11.95 16.25 -25.33 0.59 -6.54 0.72 7.32 26.10 -4.66 0.00 0.00 0.00 1.17 0.00 3.48 24.57 -14.22 -29.49 29.24 -29.50 37.79 10.90 2.93 -0.11 1.42 0.03 -3.16 -13.69 -26.33 18.03 -0.45 -54.43 23.79 -12.90 6.78 0.57 -5.24 24.74 -1.04 17.97 -12.15 -6.01 
-5.8609 39.5625 6.0113 -17.52 6.67 30.62 2.33 -27.07 -1.60 -1.92 0.83 26.63 -110.58 12.18 29.40 4.96 -29.89 9.98 12.46 19.52 -26.89 0.93 -8.64 0.70 8.28 27.26 -5.23 0.00 0.00 0.00 1.78 0.00 3.47 21.89 -14.15 -32.77 28.82 -27.78 36.84 8.55 3.55 -0.14 -0.76 -0.01 -3.58 -10.50 -25.26 18.05 -2.10 -48.49 25.51 -13.95 4.59 0.35 -2.55 23.41 -2.49 14.74 -12.36 -5.68 
-5.7256 39.6818 6.3756 -15.51 5.06 30.77 2.25 -23.92 -1.19 -2.02 0.95 28.89 -109.46 8.74 26.05 4.10 -27.60 10.17 12.79 20.64 -28.11 0.88 -9.32 0.67 9.57 27.67 -6.46 0.00 0.00 0.00 2.86 0.00 3.47 18.49 -14.30 -36.36 28.06 -25.73 34.86 6.64 3.78 -0.12 -0.10 0.00 -3.47 -11.98 -23.73 16.80 -2.10 -45.23 25.53 -15.01 4.53 0.37 -2.58 23.10 -2.45 13.82 -14.04 -5.34 
-5.6637 39.6372 6.7502 -13.84 4.05 31.16 2.29 -21.87 -2.35 -1.88 0.91 35.53 -108.82 8.50 26.62 3.62 -27.07 10.52 13.26 23.47 -30.71 -0.00 -9.43 0.50 10.58 27.23 -7.54 0.00 0.00 0.00 3.55 0.00 3.47 15.35 -14.23 -40.36 27.63 -24.04 33.32 5.52 4.31 -0.12 2.46 0.03 -3.23 -16.09 -21.31 15.54 -1.68 -42.97 23.71 -15.48 6.13 0.60 0.20 23.11 -4.04 10.92 -16.50 -5.11 
-5.6453 39.5514 7.1805 -12.08 2.67 31.29 1.42 -19.06 -3.01 -1.88 0.93 38.04 -108.25 8.64 27.44 3.81 -25.68 10.45 12.17 26.88 -31.42 0.99 -10.77 0.49 11.51 26.86 -8.56 0.00 0.00 0.00 3.88 0.00 3.50 13.29 -14.35 -44.64 26.56 -22.40 33.14 5.08 4.74 -0.13 2.17 0.02 -3.34 -16.01 -19.56 15.66 -2.46 -37.94 20.72 -15.50 7.16 0.74 1.11 21.43 -4.89 9.46 -18.06 -5.30 
-5.5207 39.5947 7.6183 -10.80 1.21 31.09 1.56 -16.59 -2.65 -1.90 0.92 39.69 -107.53 9.65 28.31 3.27 -22.89 8.13 11.79 27.01 -29.18 0.63 -11.45 0.46 12.43 26.40 -9.26 0.00 0.00 0.00 4.10 0.00 3.49 11.62 -14.00 -47.84 25.80 -22.06 32.71 4.83 5.36 -0.15 1.51 0.01 -3.42 -14.98 -18.20 16.07 -4.60 -31.57 17.10 -14.73 7.16 0.70 0.97 19.24 -5.09 8.71 -19.23 -5.43 
